# xmcd
#
# Track frame offsets:
#	150
#	15830
#	29147
#	44077
#	58615
#	73713
#	89632
#	105083
#	116251
#	130297
#	144670
#	156767
#	170833
#	185768
#	201936
#	215886
#
# Disc length: 3065 seconds
#
# Revision: 0
# Processed by: cddbd v1.5.2PL0 Copyright (c) Steve Scherf et al.
# Submitted via: dBpowerAMP V4.0
#
DISCID=f30bf710
DTITLE=fidel funes - fidel funes
DYEAR=1995
DGENRE=Ballad
TTITLE0=mi amigo
TTITLE1=mi ermano
TTITLE2=pedro
TTITLE3=santos
TTITLE4=antnio
TTITLE5=juan
TTITLE6=jose
TTITLE7=martin
TTITLE8=lucia
TTITLE9=isabela
TTITLE10=maria
TTITLE11=josefa
TTITLE12=manuel
TTITLE13=tu y yo
TTITLE14=los angeles
TTITLE15=california
EXTD=
EXTT0=
EXTT1=
EXTT2=
EXTT3=
EXTT4=
EXTT5=
EXTT6=
EXTT7=
EXTT8=
EXTT9=
EXTT10=
EXTT11=
EXTT12=
EXTT13=
EXTT14=
EXTT15=
PLAYORDER=
